<svg version="1.1" xmlns="http://www.w3.org/2000/svg" viewBox="0 0 867.5747375488281 491.25535583496094" width="1735.1494750976562" height="982.5107116699219">
  <!-- svg-source:excalidraw -->
  
  <defs>
    <style class="style-fonts">
      @font-face {
        font-family: "Virgil";
        src: url("https://excalidraw.com/Virgil.woff2");
      }
      @font-face {
        font-family: "Cascadia";
        src: url("https://excalidraw.com/Cascadia.woff2");
      }
      @font-face {
        font-family: "Assistant";
        src: url("https://excalidraw.com/Assistant-Regular.woff2");
      }
    </style>
    
  </defs>
  <rect x="0" y="0" width="867.5747375488281" height="491.25535583496094" fill="#ffffff"></rect><g stroke-linecap="round" transform="translate(261.2995300292969 322.76312255859375) rotate(0 143.73733520507812 79.2461166381836)"><path d="M32 0 C93.11 0.59, 153.39 2.06, 255.47 0 M32 0 C108.89 1.11, 185.91 1.32, 255.47 0 M255.47 0 C276.34 -0.15, 286.56 12.05, 287.47 32 M255.47 0 C278.32 -0.47, 288.35 9.57, 287.47 32 M287.47 32 C287.91 56.95, 288.86 79.18, 287.47 126.49 M287.47 32 C287.43 50.65, 287.2 69.8, 287.47 126.49 M287.47 126.49 C287.91 147.12, 275.39 159.3, 255.47 158.49 M287.47 126.49 C289.3 148.19, 277.67 158.38, 255.47 158.49 M255.47 158.49 C208.91 160.39, 160.59 159.17, 32 158.49 M255.47 158.49 C194.03 156.68, 131.73 156.79, 32 158.49 M32 158.49 C12.1 159.97, 1.25 146.62, 0 126.49 M32 158.49 C9.44 156.95, -0.17 148.28, 0 126.49 M0 126.49 C0.08 108.02, -1.11 86.12, 0 32 M0 126.49 C0.32 107.96, 0.07 88.15, 0 32 M0 32 C0.69 10.68, 9.25 1.6, 32 0 M0 32 C-1.55 10.82, 10.22 2.1, 32 0" stroke="#1971c2" stroke-width="2" fill="none"></path></g><g transform="translate(307.6963806152344 347.86852111816404) rotate(0 103.125 57.599999999999966)"><text x="0" y="15.45" font-family="Cascadia, Segoe UI Emoji" font-size="16px" fill="#1e1e1e" text-anchor="start" style="white-space: pre;" direction="ltr" dominant-baseline="alphabetic">Cache Storage:</text><text x="0" y="34.65" font-family="Cascadia, Segoe UI Emoji" font-size="16px" fill="#1e1e1e" text-anchor="start" style="white-space: pre;" direction="ltr" dominant-baseline="alphabetic">{</text><text x="0" y="53.849999999999994" font-family="Cascadia, Segoe UI Emoji" font-size="16px" fill="#1e1e1e" text-anchor="start" style="white-space: pre;" direction="ltr" dominant-baseline="alphabetic">  key1: { data, exp },</text><text x="0" y="73.05" font-family="Cascadia, Segoe UI Emoji" font-size="16px" fill="#1e1e1e" text-anchor="start" style="white-space: pre;" direction="ltr" dominant-baseline="alphabetic">  key2: { data, exp },</text><text x="0" y="92.25" font-family="Cascadia, Segoe UI Emoji" font-size="16px" fill="#1e1e1e" text-anchor="start" style="white-space: pre;" direction="ltr" dominant-baseline="alphabetic">  . . .</text><text x="0" y="111.45" font-family="Cascadia, Segoe UI Emoji" font-size="16px" fill="#1e1e1e" text-anchor="start" style="white-space: pre;" direction="ltr" dominant-baseline="alphabetic">}</text></g><g mask="url(#mask-ZQ8G9jekJx34_p2lafj0j)" stroke-linecap="round"><g transform="translate(421.05876817127535 155.4064025878905) rotate(0 -0.30236087832543035 79.72010040283209)"><path d="M-0.98 -0.16 C-1.13 26.65, -0.33 133.55, -0.23 160.05 M0.71 -1.28 C0.38 25.24, -0.68 131.39, -0.98 158.25" stroke="#1e1e1e" stroke-width="2" fill="none"></path></g><g transform="translate(421.05876817127535 155.4064025878905) rotate(0 -0.30236087832543035 79.72010040283209)"><path d="M-9.28 134.67 C-6.74 143.75, -2.51 151.86, -0.98 158.25 M-9.28 134.67 C-7.37 141.21, -6.2 146.7, -0.98 158.25" stroke="#1e1e1e" stroke-width="2" fill="none"></path></g><g transform="translate(421.05876817127535 155.4064025878905) rotate(0 -0.30236087832543035 79.72010040283209)"><path d="M7.82 134.85 C4.28 143.73, 2.42 151.77, -0.98 158.25 M7.82 134.85 C5.45 141.45, 2.33 146.9, -0.98 158.25" stroke="#1e1e1e" stroke-width="2" fill="none"></path></g></g><mask id="mask-ZQ8G9jekJx34_p2lafj0j"><rect x="0" y="0" fill="#fff" width="521.6634899279262" height="414.8466033935547"></rect><rect x="364.50640729295003" y="187.12650299072266" fill="#000" width="112.5" height="96" opacity="1"></rect></mask><g transform="translate(364.5064072929499 187.12650299072266) rotate(0 56.41161875360115 47.6636528134066)"><text x="56.25" y="15.45" font-family="Cascadia, Segoe UI Emoji" font-size="16px" fill="#1971c2" text-anchor="middle" style="white-space: pre;" direction="ltr" dominant-baseline="alphabetic">Add content:</text><text x="56.25" y="34.65" font-family="Cascadia, Segoe UI Emoji" font-size="16px" fill="#1971c2" text-anchor="middle" style="white-space: pre;" direction="ltr" dominant-baseline="alphabetic"></text><text x="56.25" y="53.849999999999994" font-family="Cascadia, Segoe UI Emoji" font-size="16px" fill="#1971c2" text-anchor="middle" style="white-space: pre;" direction="ltr" dominant-baseline="alphabetic">key</text><text x="56.25" y="73.05" font-family="Cascadia, Segoe UI Emoji" font-size="16px" fill="#1971c2" text-anchor="middle" style="white-space: pre;" direction="ltr" dominant-baseline="alphabetic">data</text><text x="56.25" y="92.25" font-family="Cascadia, Segoe UI Emoji" font-size="16px" fill="#1971c2" text-anchor="middle" style="white-space: pre;" direction="ltr" dominant-baseline="alphabetic">ttl</text></g><g stroke-linecap="round" transform="translate(316.9264221191406 10) rotate(0 115.03707885742188 69.27069091796875)"><path d="M32 0 C81.58 0.4, 132.58 -0.87, 198.07 0 M32 0 C76.25 -0.14, 119.07 0.68, 198.07 0 M198.07 0 C219.92 -1.8, 229.89 9.71, 230.07 32 M198.07 0 C220.79 -0.68, 231.87 9.8, 230.07 32 M230.07 32 C231.87 51.97, 228.39 75.93, 230.07 106.54 M230.07 32 C229.63 53.81, 229.16 74.06, 230.07 106.54 M230.07 106.54 C230.83 128.53, 220.34 139.47, 198.07 138.54 M230.07 106.54 C229.33 129.85, 218.39 140.8, 198.07 138.54 M198.07 138.54 C161.38 136.8, 126.08 138, 32 138.54 M198.07 138.54 C149.44 136.36, 102.82 137.11, 32 138.54 M32 138.54 C10.51 140.45, -0.11 127.15, 0 106.54 M32 138.54 C9.72 140.53, 0.8 128.49, 0 106.54 M0 106.54 C-1.29 78.87, -0.52 51.82, 0 32 M0 106.54 C1.15 78.98, -0.36 49.85, 0 32 M0 32 C-1.47 12.62, 12 -0.31, 32 0 M0 32 C1.99 9.65, 8.73 -1.03, 32 0" stroke="#1e1e1e" stroke-width="2" fill="none"></path></g><g transform="translate(341.3092346191406 40.749053955078125) rotate(0 93.75 38.39999999999998)"><text x="0" y="15.45" font-family="Cascadia, Segoe UI Emoji" font-size="16px" fill="#1e1e1e" text-anchor="start" style="white-space: pre;" direction="ltr" dominant-baseline="alphabetic">Add key</text><text x="0" y="34.65" font-family="Cascadia, Segoe UI Emoji" font-size="16px" fill="#1e1e1e" text-anchor="start" style="white-space: pre;" direction="ltr" dominant-baseline="alphabetic">to storage,</text><text x="0" y="53.849999999999994" font-family="Cascadia, Segoe UI Emoji" font-size="16px" fill="#1e1e1e" text-anchor="start" style="white-space: pre;" direction="ltr" dominant-baseline="alphabetic"></text><text x="0" y="73.05" font-family="Cascadia, Segoe UI Emoji" font-size="16px" fill="#1e1e1e" text-anchor="start" style="white-space: pre;" direction="ltr" dominant-baseline="alphabetic">exp = Date.now()+ttl</text></g><g mask="url(#mask-z2gfZF-vIgfkx9_gBN2YF)" stroke-linecap="round"><g transform="translate(736.0551132482133 149.10757446289062) rotate(0 -92.06537296413018 89.2684514872185)"><path d="M-0.82 0.39 C-31.38 30.01, -152.87 149.01, -183.57 178.77 M0.96 -0.45 C-29.7 29.31, -153.64 147.22, -184.22 176.77" stroke="#1e1e1e" stroke-width="2" fill="none"></path></g><g transform="translate(736.0551132482133 149.10757446289062) rotate(0 -92.06537296413018 89.2684514872185)"><path d="M-173.17 154.35 C-175.47 161.57, -178.86 165.55, -184.22 176.77 M-173.17 154.35 C-177.69 162.65, -181.15 169.75, -184.22 176.77" stroke="#1e1e1e" stroke-width="2" fill="none"></path></g><g transform="translate(736.0551132482133 149.10757446289062) rotate(0 -92.06537296413018 89.2684514872185)"><path d="M-161.34 166.7 C-167.1 170.34, -173.85 170.81, -184.22 176.77 M-161.34 166.7 C-169.82 170.79, -177.25 173.74, -184.22 176.77" stroke="#1e1e1e" stroke-width="2" fill="none"></path></g></g><mask id="mask-z2gfZF-vIgfkx9_gBN2YF"><rect x="0" y="0" fill="#fff" width="1020.1858591764736" height="427.6444774373276"></rect><rect x="578.3647402840832" y="209.57602595010917" fill="#000" width="131.25" height="57.599999999999994" opacity="1"></rect></mask><g transform="translate(578.3647402840832 209.57602595010917) rotate(0 66.05666918842115 28.692810116680278)"><text x="65.625" y="15.45" font-family="Cascadia, Segoe UI Emoji" font-size="16px" fill="#1971c2" text-anchor="middle" style="white-space: pre;" direction="ltr" dominant-baseline="alphabetic">Fetch content:</text><text x="65.625" y="34.65" font-family="Cascadia, Segoe UI Emoji" font-size="16px" fill="#1971c2" text-anchor="middle" style="white-space: pre;" direction="ltr" dominant-baseline="alphabetic"></text><text x="65.625" y="53.849999999999994" font-family="Cascadia, Segoe UI Emoji" font-size="16px" fill="#1971c2" text-anchor="middle" style="white-space: pre;" direction="ltr" dominant-baseline="alphabetic">key</text></g><g stroke-linecap="round" transform="translate(621.4311218261719 24.303955078125) rotate(0 118.07180786132812 57.895782470703125)"><path d="M28.95 0 C83.11 1.94, 134.3 -0.42, 207.2 0 M28.95 0 C72.02 1.18, 114.99 0.95, 207.2 0 M207.2 0 C225.93 -0.32, 234.76 8.92, 236.14 28.95 M207.2 0 C226.79 -0.94, 238.11 9.66, 236.14 28.95 M236.14 28.95 C235.33 41.09, 235.28 56.08, 236.14 86.84 M236.14 28.95 C236.16 46.94, 236.04 66.04, 236.14 86.84 M236.14 86.84 C237.93 107.25, 226.45 117.06, 207.2 115.79 M236.14 86.84 C234.41 104.67, 227.68 118.07, 207.2 115.79 M207.2 115.79 C150.75 116.97, 91.93 118.93, 28.95 115.79 M207.2 115.79 C137.24 116.24, 67 117.27, 28.95 115.79 M28.95 115.79 C10.33 114.79, 1.52 104.79, 0 86.84 M28.95 115.79 C9.79 116.28, -2.15 106.3, 0 86.84 M0 86.84 C-1.46 70.38, -1.71 56.74, 0 28.95 M0 86.84 C0.02 70.12, -0.62 54.15, 0 28.95 M0 28.95 C-1.97 7.84, 10.26 -0.72, 28.95 0 M0 28.95 C0.54 11.59, 8.34 2.04, 28.95 0" stroke="#1e1e1e" stroke-width="2" fill="none"></path></g><g transform="translate(664.6635437011719 41.6302551269531) rotate(0 79.6875 38.39999999999998)"><text x="0" y="15.45" font-family="Cascadia, Segoe UI Emoji" font-size="16px" fill="#1e1e1e" text-anchor="start" style="white-space: pre;" direction="ltr" dominant-baseline="alphabetic">Get data by key </text><text x="0" y="34.65" font-family="Cascadia, Segoe UI Emoji" font-size="16px" fill="#1e1e1e" text-anchor="start" style="white-space: pre;" direction="ltr" dominant-baseline="alphabetic">from storage if </text><text x="0" y="53.849999999999994" font-family="Cascadia, Segoe UI Emoji" font-size="16px" fill="#1e1e1e" text-anchor="start" style="white-space: pre;" direction="ltr" dominant-baseline="alphabetic"></text><text x="0" y="73.05" font-family="Cascadia, Segoe UI Emoji" font-size="16px" fill="#1e1e1e" text-anchor="start" style="white-space: pre;" direction="ltr" dominant-baseline="alphabetic">exp &gt; Date.now() </text></g><g mask="url(#mask-R8BueuF7FmBefhastED1x)" stroke-linecap="round"><g transform="translate(121.67651979406423 129.23089599609375) rotate(0 73.63273325213339 99.724899270337)"><path d="M0.33 0.13 C24.97 33.06, 122.44 165.62, 147.07 198.7 M-0.95 -0.84 C23.58 32.74, 121.23 166.46, 146.01 199.84" stroke="#1e1e1e" stroke-width="2" fill="none"></path></g><g transform="translate(121.67651979406423 129.23089599609375) rotate(0 73.63273325213339 99.724899270337)"><path d="M125.21 185.98 C130.48 188.87, 133.92 193.85, 146.01 199.84 M125.21 185.98 C130.37 189.21, 134.42 192.7, 146.01 199.84" stroke="#1e1e1e" stroke-width="2" fill="none"></path></g><g transform="translate(121.67651979406423 129.23089599609375) rotate(0 73.63273325213339 99.724899270337)"><path d="M138.98 175.85 C141.09 181.17, 141.28 188.54, 146.01 199.84 M138.98 175.85 C141.04 181.31, 141.95 187.11, 146.01 199.84" stroke="#1e1e1e" stroke-width="2" fill="none"></path></g></g><mask id="mask-R8BueuF7FmBefhastED1x"><rect x="0" y="0" fill="#fff" width="368.941986298331" height="428.68069453676776"></rect><rect x="124.99675304619768" y="200.1557952664308" fill="#000" width="140.625" height="57.599999999999994" opacity="1"></rect></mask><g transform="translate(124.99675304619757 200.15579526643074) rotate(0 69.73797832178883 28.575635008234485)"><text x="70.3125" y="15.45" font-family="Cascadia, Segoe UI Emoji" font-size="16px" fill="#1971c2" text-anchor="middle" style="white-space: pre;" direction="ltr" dominant-baseline="alphabetic">Delete content:</text><text x="70.3125" y="34.65" font-family="Cascadia, Segoe UI Emoji" font-size="16px" fill="#1971c2" text-anchor="middle" style="white-space: pre;" direction="ltr" dominant-baseline="alphabetic"></text><text x="70.3125" y="53.849999999999994" font-family="Cascadia, Segoe UI Emoji" font-size="16px" fill="#1971c2" text-anchor="middle" style="white-space: pre;" direction="ltr" dominant-baseline="alphabetic">key</text></g><g stroke-linecap="round" transform="translate(10 27.485931396484375) rotate(0 112.04695129394531 48.889984130859375)"><path d="M24.44 0 C73.45 0.65, 127.71 1.14, 199.65 0 M24.44 0 C81.37 -0.69, 137.73 -0.71, 199.65 0 M199.65 0 C216.27 -0.9, 223.92 9.1, 224.09 24.44 M199.65 0 C217.56 0.53, 226.06 8.16, 224.09 24.44 M224.09 24.44 C225.54 36.36, 223.49 45.98, 224.09 73.33 M224.09 24.44 C224.87 38.64, 225.1 50.78, 224.09 73.33 M224.09 73.33 C224.38 89.37, 217.64 96.09, 199.65 97.78 M224.09 73.33 C225.64 88.4, 218.02 95.82, 199.65 97.78 M199.65 97.78 C132.48 95.86, 66.46 97.53, 24.44 97.78 M199.65 97.78 C144.53 98.33, 91.24 98.02, 24.44 97.78 M24.44 97.78 C7.59 96.57, -1.31 90.94, 0 73.33 M24.44 97.78 C7.84 98.1, -1.46 87.35, 0 73.33 M0 73.33 C1.15 54.88, -0.11 37.91, 0 24.44 M0 73.33 C0.84 62.65, -0.11 53.74, 0 24.44 M0 24.44 C-0.38 9.51, 6.82 1.46, 24.44 0 M0 24.44 C1.18 9.16, 5.99 1, 24.44 0" stroke="#1e1e1e" stroke-width="2" fill="none"></path></g><g transform="translate(60.661956787109375 57.88126220703123) rotate(0 56.25 19.19999999999999)"><text x="0" y="15.45" font-family="Cascadia, Segoe UI Emoji" font-size="16px" fill="#1e1e1e" text-anchor="start" style="white-space: pre;" direction="ltr" dominant-baseline="alphabetic">Remove key</text><text x="0" y="34.65" font-family="Cascadia, Segoe UI Emoji" font-size="16px" fill="#1e1e1e" text-anchor="start" style="white-space: pre;" direction="ltr" dominant-baseline="alphabetic">from storage</text></g></svg>